<svg width="60" height="60" viewBox="0 0 60 60" fill="none" xmlns="http://www.w3.org/2000/svg">
<g clip-path="url(#clip0_24_2)">
<rect x="1.5" y="1.5" width="57" height="57" rx="8.5" fill="black" stroke="#DBE8D8" stroke-width="3"/>
<path d="M31 13C21.059 13 13 19.268 13 27C13 31.368 15.574 35.268 19.604 37.835C19.08 40.144 17.859 43.569 15 47C20.758 46.04 24.439 43.239 26.716 40.584C28.092 40.846 29.521 41 31 41C40.941 41 49 34.732 49 27C49 19.268 40.941 13 31 13Z" fill="#F3F9EE"/>
<path d="M31 29C32.1046 29 33 28.1046 33 27C33 25.8954 32.1046 25 31 25C29.8954 25 29 25.8954 29 27C29 28.1046 29.8954 29 31 29Z" fill="#B3BEB0"/>
<path d="M39 29C40.1046 29 41 28.1046 41 27C41 25.8954 40.1046 25 39 25C37.8954 25 37 25.8954 37 27C37 28.1046 37.8954 29 39 29Z" fill="#B3BEB0"/>
<path d="M23 29C24.1046 29 25 28.1046 25 27C25 25.8954 24.1046 25 23 25C21.8954 25 21 25.8954 21 27C21 28.1046 21.8954 29 23 29Z" fill="#B3BEB0"/>
</g>
<defs>
<clipPath id="clip0_24_2">
<rect width="60" height="60" fill="white"/>
</clipPath>
</defs>
</svg>
