<svg width="60" height="60" viewBox="0 0 60 60" fill="none" xmlns="http://www.w3.org/2000/svg">
<g clip-path="url(#clip0_103_4)">
<rect x="1.5" y="1.5" width="57" height="57" rx="8.5" fill="black" stroke="#DBE8D8" stroke-width="3"/>
<path d="M11.848 38V20.48H14.848V27.512H19.552V20.48H22.552V38H19.552V30.296H14.848V38H11.848ZM26.5506 38V35.36H30.0786V23.12H26.5506V20.48H36.6306V23.12H33.1026V35.36H36.6306V38H26.5506ZM44.8773 32.408L44.3493 23.792V20.48H47.6133V23.792L47.0853 32.408H44.8773ZM45.6213 38.12C45.1253 38.12 44.7253 37.976 44.4213 37.688C44.1173 37.384 43.9653 37 43.9653 36.536C43.9653 36.072 44.1173 35.696 44.4213 35.408C44.7253 35.104 45.1253 34.952 45.6213 34.952H46.3413C46.8533 34.952 47.2533 35.096 47.5413 35.384C47.8453 35.672 47.9973 36.056 47.9973 36.536C47.9973 37 47.8453 37.384 47.5413 37.688C47.2373 37.976 46.8293 38.12 46.3173 38.12H45.6213Z" fill="#DBE8D8"/>
</g>
<defs>
<clipPath id="clip0_103_4">
<rect width="60" height="60" fill="white"/>
</clipPath>
</defs>
</svg>
