<svg width="60" height="60" viewBox="0 0 60 60" fill="none" xmlns="http://www.w3.org/2000/svg">
<g clip-path="url(#clip0_35_64)">
<rect x="1.5" y="1.5" width="57" height="57" rx="8.5" fill="black" stroke="#DBE8D8" stroke-width="3"/>
<path d="M29.1875 16.0312L30 17.1635L30.8125 16.0312C32.8231 13.2292 36.0947 11.4017 39.7998 11.4017C45.9073 11.4017 50.8595 16.3537 50.8595 22.4626C50.8595 23.3222 50.7505 24.1592 50.5586 24.9733L50.5503 25.0084L50.5446 25.0441C49.7526 29.9717 46.5853 35.1412 42.5177 39.4877C38.5701 43.706 33.8916 47.0241 30 48.5291C26.1078 47.0241 21.4293 43.706 17.4816 39.4876C13.4138 35.1409 10.2461 29.9711 9.45297 25.0427L9.44746 25.0084L9.43959 24.9746C9.24948 24.1588 9.14056 23.321 9.14056 22.4626C9.14056 16.3526 14.0926 11.4017 20.2015 11.4017C23.9052 11.4017 27.1769 13.2291 29.1875 16.0312Z" fill="#D6E3D3" stroke="#B3BEB0" stroke-width="2"/>
</g>
<defs>
<clipPath id="clip0_35_64">
<rect width="60" height="60" fill="white"/>
</clipPath>
</defs>
</svg>
