<svg width="60" height="60" viewBox="0 0 60 60" fill="none" xmlns="http://www.w3.org/2000/svg">
<g clip-path="url(#clip0_10_2)">
<rect x="1.5" y="1.5" width="57" height="57" rx="8.5" fill="black" stroke="#DBE8D8" stroke-width="3"/>
<path d="M17.642 39.9524C17.642 32.7803 23.2592 31.6664 23.2592 24.9822C23.2592 21.5314 26.7678 21.2407 29.4383 21.2407C31.7447 21.2407 36.8373 22.1084 36.8373 24.9844C36.8373 31.6653 42.358 32.7791 42.358 39.9524C42.358 46.67 36.4205 52.1157 29.9067 52.1157C23.3907 52.1157 17.642 46.67 17.642 39.9524Z" fill="#F3F9EE"/>
<path d="M25.3186 16.0713C25.3186 15.149 27.8284 13.2867 30 13.2867C32.1716 13.2867 34.6814 15.149 34.6814 16.0713C34.6814 16.9936 32.1728 16.6282 30 16.6282C27.8284 16.6282 25.3186 16.9936 25.3186 16.0713Z" fill="#D6E3D3"/>
<path d="M24.7119 40.8067C25.1511 41.2422 25.8612 41.2422 26.3004 40.8067L30 37.1388L33.6995 40.8067C34.1388 41.2422 34.8488 41.2422 35.2881 40.8067C35.7274 40.3712 35.7274 39.6672 35.2881 39.2317L31.1234 35.1026L31.1234 23.3114C31.1234 22.6954 30.6201 22.1975 30 22.1975C29.3798 22.1975 28.8765 22.6954 28.8765 23.3114L28.8765 35.1026L24.7119 39.2317C24.2726 39.6672 24.2726 40.3712 24.7119 40.8067Z" fill="#D6E3D3"/>
<path d="M23.2592 17.7421C23.2592 16.5124 24.2659 15.5144 25.5062 15.5144L34.4938 15.5144C35.7341 15.5144 36.7407 16.5124 36.7407 17.7421L36.7407 24.4252L23.2592 24.4252L23.2592 17.7421Z" fill="#B3BEB0"/>
<path d="M36.7419 16.6282C37.2811 16.6282 37.7575 17.0147 37.8485 17.5594C37.9507 18.1653 37.5373 18.7401 36.925 18.8403L23.4435 21.068C22.8324 21.1772 22.2526 20.7595 22.1515 20.1525C22.0493 19.5465 22.4627 18.9718 23.075 18.8715L36.5565 16.6438C36.6183 16.6327 36.6812 16.6282 36.7419 16.6282ZM36.7419 21.0836C37.2811 21.0836 37.7575 21.4702 37.8485 22.0148C37.9507 22.6208 37.5373 23.1955 36.925 23.2958L23.4435 25.5235C22.8324 25.6315 22.2526 25.2149 22.1515 24.6079C22.0493 24.0019 22.4627 23.4272 23.075 23.3269L36.5565 21.0992C36.6183 21.0881 36.6812 21.0836 36.7419 21.0836Z" fill="#D6E3D3"/>
<path d="M30 14L30 2" stroke="#D6E3D3" stroke-width="3"/>
</g>
<defs>
<clipPath id="clip0_10_2">
<rect width="60" height="60" fill="white"/>
</clipPath>
</defs>
</svg>
