<svg width="60" height="60" viewBox="0 0 60 60" fill="none" xmlns="http://www.w3.org/2000/svg">
<g clip-path="url(#clip0_103_4)">
<rect x="1.5" y="1.5" width="57" height="57" rx="8.5" fill="black" stroke="#DBE8D8" stroke-width="3"/>
<g clip-path="url(#clip1_103_4)">
<path d="M13.2113 17.6878C14.4124 16.8483 16.223 17.0093 17.3014 17.8999L16.0646 16.1021C15.0692 14.6825 15.4257 13.1466 16.8466 12.1499C18.2674 11.1571 22.2937 13.8264 22.2937 13.8264C21.2894 12.3927 21.4772 10.5757 22.9109 9.57011C24.3446 8.56833 26.3226 8.91461 27.3269 10.3508L40.6413 29.1597L38.9444 45.6111L24.7828 40.4463L12.4306 22.1319C11.4173 20.6893 11.7674 18.6998 13.2113 17.6878Z" fill="#B3BEB0"/>
<path d="M10.4436 28.1516C10.4436 28.1516 8.99716 26.0432 11.1068 24.5981C13.2138 23.1529 14.659 25.2599 14.659 25.2599L21.3686 35.0452C21.5999 34.6593 21.8529 34.2785 22.1353 33.9028L12.8228 20.3239C12.8228 20.3239 11.3777 18.2168 13.486 16.7717C15.5931 15.3265 17.0382 17.4336 17.0382 17.4336L25.7974 30.2075C26.1232 29.9417 26.4567 29.6747 26.8004 29.4127L16.6459 14.602C16.6459 14.602 15.2008 12.4949 17.3091 11.0498C19.4162 9.60461 20.8613 11.7117 20.8613 11.7117L31.0158 26.5198C31.3889 26.2911 31.7582 26.0931 32.1288 25.8835L22.6374 12.0426C22.6374 12.0426 21.1923 9.93556 23.2993 8.49039C25.4064 7.04522 26.8516 9.15228 26.8516 9.15228L36.8872 23.7879L38.4129 26.0138C32.0904 30.3506 31.4886 38.5092 35.1009 43.7775C35.8228 44.8317 36.877 44.1097 36.877 44.1097C32.5415 37.786 33.8653 30.6803 40.189 26.3448L38.3247 17.0144C38.3247 17.0144 37.6283 14.556 40.0855 13.8583C42.5439 13.1619 43.2416 15.6204 43.2416 15.6204L45.3947 22.0144C46.2482 24.5495 47.1567 27.0757 48.3591 29.4651C51.7542 36.2118 49.7263 44.5966 43.3247 48.9883C36.3416 53.7761 26.7953 51.9962 22.0062 45.0144L10.4436 28.1516Z" fill="#F3F9EE"/>
<path d="M22.3333 46.9426C17.2222 46.9426 12.0574 41.7778 12.0574 36.6667C12.0574 35.9601 11.5399 35.3889 10.8333 35.3889C10.1267 35.3889 9.50189 35.9601 9.50189 36.6667C9.50189 44.3333 14.6667 49.4981 22.3333 49.4981C23.0399 49.4981 23.6111 48.8733 23.6111 48.1667C23.6111 47.4601 23.0399 46.9426 22.3333 46.9426Z" fill="#D6E3D3"/>
<path d="M15.9444 49.4444C12.1111 49.4444 9.55556 46.8889 9.55556 43.0556C9.55556 42.3489 8.98439 41.7778 8.27778 41.7778C7.57117 41.7778 7 42.3489 7 43.0556C7 48.1667 10.8333 52 15.9444 52C16.6511 52 17.2222 51.4288 17.2222 50.7222C17.2222 50.0156 16.6511 49.4444 15.9444 49.4444ZM37.6667 8.55556C36.9613 8.55556 36.3889 9.128 36.3889 9.83333C36.3889 10.5387 36.9613 11.1111 37.6667 11.1111C42.7778 11.1111 47.8889 15.6971 47.8889 21.3333C47.8889 22.0387 48.4613 22.6111 49.1667 22.6111C49.872 22.6111 50.4444 22.0387 50.4444 21.3333C50.4444 14.2877 45.3333 8.55556 37.6667 8.55556Z" fill="#D6E3D3"/>
<path d="M44.0556 6.05367C43.3502 6.05367 42.7778 6.57244 42.7778 7.27778C42.7778 7.98311 43.3502 8.60922 44.0556 8.60922C47.8889 8.60922 50.3908 11.4523 50.3908 14.9444C50.3908 15.6498 51.0156 16.2222 51.7222 16.2222C52.4288 16.2222 52.9463 15.6498 52.9463 14.9444C52.9463 10.0416 49.1667 6.05367 44.0556 6.05367Z" fill="#D6E3D3"/>
</g>
</g>
<defs>
<clipPath id="clip0_103_4">
<rect width="60" height="60" fill="white"/>
</clipPath>
<clipPath id="clip1_103_4">
<rect width="46" height="46" fill="white" transform="translate(7 6)"/>
</clipPath>
</defs>
</svg>
